<svg width="5124" height="1454" xmlns="http://www.w3.org/2000/svg" xmlns:xlink="http://www.w3.org/1999/xlink"
  overflow="hidden">
  <defs>
    <clipPath id="clip0">
      <rect x="-605" y="462" width="5124" height="1454" />
    </clipPath>
  </defs>
  <g clip-path="url(#clip0)" transform="translate(605 -462)">
    <rect x="1385" y="463" width="2631" height="1039" fill="#F9F8F8" />
    <rect x="2409" y="1147" width="1029" height="350" fill="#E1F0D9" />
    <rect x="2409" y="463" width="1029" height="351" fill="#E1F0D9" />
    <rect x="-100" y="463" width="1422" height="1403" fill="#F9F8F8" /><text
      font-family="Times New Roman,Times New Roman_MSFontService,sans-serif" font-weight="400" font-size="110"
      transform="matrix(1 0 0 1 -67.4609 1823)">Deal with </text>
    <path
      d="M411.515 1771.03C412.625 1771.03 413.601 1771.15 414.443 1771.4 415.284 1771.65 416.027 1772.04 416.672 1772.56 417.316 1773.08 417.889 1773.75 418.39 1774.57 418.892 1775.4 419.375 1776.51 419.841 1777.93 420.306 1779.34 420.745 1781.1 421.156 1783.19 421.568 1785.29 421.935 1787.46 422.258 1789.72L422.795 1789.72C426.232 1784.88 428.837 1781.35 430.61 1779.11 432.382 1776.87 433.877 1775.21 435.094 1774.12 436.312 1773.02 437.485 1772.25 438.612 1771.81 439.74 1771.36 441.235 1771.13 443.097 1771.13 444.78 1771.13 446.159 1771.35 447.233 1771.78L445.085 1781.5 441.325 1781.5C441.11 1780 440.483 1779.24 439.445 1779.24 439.123 1779.24 438.783 1779.3 438.424 1779.41 438.066 1779.51 437.628 1779.75 437.109 1780.1 436.589 1780.46 435.828 1781.16 434.826 1782.2 433.823 1783.24 432.695 1784.51 431.442 1786.01 430.189 1787.52 428.9 1789.09 427.575 1790.74L423.923 1795.3C424.567 1798.74 425.176 1801.71 425.749 1804.22 426.322 1806.73 426.832 1808.81 427.279 1810.48 427.727 1812.14 428.121 1813.46 428.461 1814.43 428.801 1815.39 429.168 1816.12 429.562 1816.6 429.956 1817.08 430.359 1817.42 430.771 1817.62 431.182 1817.82 431.657 1817.92 432.194 1817.92 433.161 1817.92 434.101 1817.54 435.014 1816.79 435.927 1816.04 437.243 1814.34 438.962 1811.69L442.453 1814C439.946 1817.72 437.681 1820.34 435.658 1821.86 433.635 1823.39 431.227 1824.15 428.434 1824.15 426.895 1824.15 425.588 1823.87 424.513 1823.31 423.439 1822.76 422.508 1821.87 421.72 1820.66 420.933 1819.44 420.234 1817.54 419.626 1814.96 418.516 1810.38 417.835 1806.87 417.585 1804.44L417.048 1804.44C413.252 1809.77 410.432 1813.6 408.588 1815.93 406.744 1818.26 405.222 1819.98 404.023 1821.09 402.823 1822.2 401.659 1822.97 400.531 1823.42 399.404 1823.87 397.909 1824.09 396.047 1824.09 394.364 1824.09 392.985 1823.88 391.911 1823.45L394.059 1813.73 397.819 1813.73C398.034 1815.23 398.66 1815.98 399.699 1815.98 400.2 1815.98 400.728 1815.85 401.283 1815.58 401.838 1815.31 402.635 1814.67 403.674 1813.65 404.712 1812.63 406.144 1811.02 407.97 1808.84 409.797 1806.66 412.446 1803.38 415.92 1799.01 415.383 1796.18 414.827 1793.46 414.255 1790.85 413.682 1788.23 413.091 1785.8 412.482 1783.54 411.873 1781.29 411.372 1779.81 410.978 1779.11 410.584 1778.41 410.164 1777.93 409.716 1777.66 409.268 1777.39 408.704 1777.26 408.024 1777.26 407.272 1777.26 406.592 1777.43 405.983 1777.77 405.374 1778.11 404.712 1778.7 403.996 1779.54 403.28 1780.38 402.331 1781.7 401.149 1783.49L397.658 1781.18C399.914 1777.78 402.08 1775.23 404.157 1773.55 406.234 1771.87 408.687 1771.03 411.515 1771.03Z"
      fill="#63A6D6" fill-rule="evenodd" /><text fill="#000000" fill-opacity="0"
      font-family="Arial,Arial_MSFontService,sans-serif" font-size="53.1201" x="391.911" y="1817.51">洧논</text><text
      font-family="Times New Roman,Times New Roman_MSFontService,sans-serif" font-weight="400" font-size="110"
      transform="matrix(1 0 0 1 479.56 1823)">and </text>
    <path
      d="M683.482 1771.08C684.951 1771.08 686.204 1771.28 687.242 1771.67 687.958 1771.96 688.674 1772.43 689.391 1773.09 690.107 1773.76 690.742 1774.68 691.297 1775.86 691.852 1777.04 692.336 1778.37 692.748 1779.84 693.159 1781.3 693.616 1783.42 694.117 1786.17 694.977 1790.79 695.809 1795.65 696.615 1800.76 697.42 1805.86 698.11 1810.59 698.683 1814.96 702.156 1809.95 705.101 1805.04 707.518 1800.25 709.935 1795.45 711.672 1791.28 712.728 1787.73 713.784 1784.19 714.312 1781.3 714.312 1779.08 714.312 1777.4 713.954 1776.25 713.238 1775.65 712.522 1775.04 711.305 1774.68 709.586 1774.57L710.123 1771.94 724.249 1771.94 725.699 1774.63C722.978 1782.07 719.29 1790.04 714.635 1798.53 710.051 1806.83 704.806 1815.11 698.897 1823.34 693.24 1831.18 688.531 1836.86 684.771 1840.37 682.158 1842.77 679.633 1844.49 677.198 1845.52 675.265 1846.31 673.206 1846.71 671.021 1846.71 670.27 1846.71 669.401 1846.64 668.417 1846.52 667.432 1846.39 666.671 1846.22 666.134 1846.01L668.443 1835.59 672.687 1835.59C672.687 1837.88 673.474 1839.02 675.05 1839.02 677.127 1839.02 679.544 1837.73 682.301 1835.13 685.058 1832.53 688.299 1828.62 692.022 1823.4 690.984 1817.13 689.57 1809.57 687.779 1800.73 685.882 1791.28 684.628 1785.42 684.02 1783.17 683.268 1780.44 682.48 1778.71 681.656 1777.96 681.155 1777.49 680.528 1777.26 679.776 1777.26 678.631 1777.26 677.556 1777.72 676.554 1778.65 675.551 1779.58 674.316 1781.2 672.848 1783.49L669.356 1781.18C671.827 1777.49 674.137 1774.89 676.285 1773.36 678.434 1771.84 680.833 1771.08 683.482 1771.08Z"
      fill="#63A6D6" fill-rule="evenodd" /><text fill="#000000" fill-opacity="0"
      font-family="Arial,Arial_MSFontService,sans-serif" font-size="75.625" x="666.134" y="1837.25">洧녽</text>
    <rect x="1385" y="1624" width="2631" height="242" fill="#F9F8F8" />
    <path
      d="M-215.5 1355.21-113.311 1355.21-113.311 1359.79-215.5 1359.79ZM-117.894 1343.75-90.3942 1357.5-117.894 1371.25Z"
      fill="#63A6D6" />
    <path
      d="M-602.5 1294.17C-602.5 1276.68-515.867 1262.5-409 1262.5-302.133 1262.5-215.5 1276.68-215.5 1294.17L-215.5 1420.83C-215.5 1438.32-302.133 1452.5-409 1452.5-515.867 1452.5-602.5 1438.32-602.5 1420.83Z"
      fill="#E1F0D9" fill-rule="evenodd" />
    <path d="M-215.5 1294.17C-215.5 1311.66-302.133 1325.83-409 1325.83-515.867 1325.83-602.5 1311.66-602.5 1294.17"
      stroke="#FFFFFF" stroke-width="4.58333" stroke-miterlimit="8" fill="none" fill-rule="evenodd" />
    <path
      d="M-602.5 1294.17C-602.5 1276.68-515.867 1262.5-409 1262.5-302.133 1262.5-215.5 1276.68-215.5 1294.17L-215.5 1420.83C-215.5 1438.32-302.133 1452.5-409 1452.5-515.867 1452.5-602.5 1438.32-602.5 1420.83Z"
      stroke="#FFFFFF" stroke-width="4.58333" stroke-miterlimit="8" fill="none" fill-rule="evenodd" /><text
      font-family="Times New Roman,Times New Roman_MSFontService,sans-serif" font-weight="400" font-size="55"
      transform="matrix(1 0 0 1 -519.098 1396)">Raw Data</text>
    <path
      d="M-91.0001 1306.33C-91.0001 1292.34-79.6578 1281-65.6664 1281L271.666 1281C285.658 1281 297 1292.34 297 1306.33L297 1407.67C297 1421.66 285.658 1433 271.666 1433L-65.6664 1433C-79.6578 1433-91.0001 1421.66-91.0001 1407.67Z"
      fill="#63A6D6" fill-rule="evenodd" /><text fill="#FFFFFF"
      font-family="Times New Roman,Times New Roman_MSFontService,sans-serif" font-weight="400" font-size="55"
      transform="matrix(1 0 0 1 34.2707 1340)">Query<tspan font-size="55" x="-69.025" y="80">Transformer</tspan>
    </text>
    <path
      d="M422 1306.33C422 1292.34 433.342 1281 447.334 1281L784.666 1281C798.658 1281 810 1292.34 810 1306.33L810 1407.67C810 1421.66 798.658 1433 784.666 1433L447.334 1433C433.342 1433 422 1421.66 422 1407.67Z"
      fill="#63A6D6" fill-rule="evenodd" /><text fill="#FFFFFF"
      font-family="Times New Roman,Times New Roman_MSFontService,sans-serif" font-weight="400" font-size="55"
      transform="matrix(1 0 0 1 532.949 1340)">FilterIn<tspan font-size="55" x="-55" y="80">Transformer</tspan>
    </text>
    <path
      d="M935 1306.33C935 1292.34 946.342 1281 960.334 1281L1296.67 1281C1310.66 1281 1322 1292.34 1322 1306.33L1322 1407.67C1322 1421.66 1310.66 1433 1296.67 1433L960.334 1433C946.342 1433 935 1421.66 935 1407.67Z"
      fill="#63A6D6" fill-rule="evenodd" /><text fill="#FFFFFF"
      font-family="Times New Roman,Times New Roman_MSFontService,sans-serif" font-weight="400" font-size="55"
      transform="matrix(1 0 0 1 1077.73 1340)">Eval<tspan font-size="55" x="-87.0834" y="80">Transformer</tspan>
    </text>
    <path
      d="M1447 1693.33C1447 1679.34 1458.34 1668 1472.33 1668L1809.67 1668C1823.66 1668 1835 1679.34 1835 1693.33L1835 1794.67C1835 1808.66 1823.66 1820 1809.67 1820L1472.33 1820C1458.34 1820 1447 1808.66 1447 1794.67Z"
      fill="#63A6D6" fill-rule="evenodd" /><text fill="#FFFFFF"
      font-family="Times New Roman,Times New Roman_MSFontService,sans-serif" font-weight="400" font-size="55"
      transform="matrix(1 0 0 1 1573.52 1727)">Select<tspan font-size="55" x="-70.1708" y="80">Transformer</tspan>
    </text>
    <path
      d="M2473 1693.33C2473 1679.34 2484.34 1668 2498.33 1668L2835.67 1668C2849.66 1668 2861 1679.34 2861 1693.33L2861 1794.67C2861 1808.66 2849.66 1820 2835.67 1820L2498.33 1820C2484.34 1820 2473 1808.66 2473 1794.67Z"
      fill="#63A6D6" fill-rule="evenodd" /><text fill="#FFFFFF"
      font-family="Times New Roman,Times New Roman_MSFontService,sans-serif" font-weight="400" font-size="55"
      transform="matrix(1 0 0 1 2570.87 1727)">MinMax<tspan font-size="55" x="27.2249" y="80">Scaler</tspan>
    </text>
    <path
      d="M3505 1693.33C3505 1679.34 3516.34 1668 3530.33 1668L3867.67 1668C3881.66 1668 3893 1679.34 3893 1693.33L3893 1794.67C3893 1808.66 3881.66 1820 3867.67 1820L3530.33 1820C3516.34 1820 3505 1808.66 3505 1794.67Z"
      fill="#63A6D6" fill-rule="evenodd" /><text fill="#FFFFFF"
      font-family="Times New Roman,Times New Roman_MSFontService,sans-serif" font-weight="400" font-size="55"
      transform="matrix(1 0 0 1 3634.32 1727)">Ravel<tspan font-size="55" x="-73.3335" y="80">Transformer</tspan>
    </text>
    <path
      d="M1447 912.334C1447 898.342 1458.34 887 1472.33 887L1809.67 887C1823.66 887 1835 898.342 1835 912.334L1835 1013.67C1835 1027.66 1823.66 1039 1809.67 1039L1472.33 1039C1458.34 1039 1447 1027.66 1447 1013.67Z"
      fill="#63A6D6" fill-rule="evenodd" /><text fill="#FFFFFF"
      font-family="Times New Roman,Times New Roman_MSFontService,sans-serif" font-weight="400" font-size="55"
      transform="matrix(1 0 0 1 1573.52 946)">Select<tspan font-size="55" x="-70.1708" y="80">Transformer</tspan>
    </text>
    <path
      d="M1959 912.334C1959 898.342 1970.34 887 1984.33 887L2321.67 887C2335.66 887 2347 898.342 2347 912.334L2347 1013.67C2347 1027.66 2335.66 1039 2321.67 1039L1984.33 1039C1970.34 1039 1959 1027.66 1959 1013.67Z"
      fill="#63A6D6" fill-rule="evenodd" /><text fill="#FFFFFF"
      font-family="Times New Roman,Times New Roman_MSFontService,sans-serif" font-weight="400" font-size="55"
      transform="matrix(1 0 0 1 2102.47 946)">Map<tspan font-size="55" x="-87.3584" y="80">Transformer</tspan>
    </text>
    <path
      d="M2473 516.5C2473 502.417 2484.42 491 2498.5 491L2835.5 491C2849.58 491 2861 502.417 2861 516.5L2861 618.499C2861 632.583 2849.58 644 2835.5 644L2498.5 644C2484.42 644 2473 632.583 2473 618.499Z"
      fill="#63A6D6" fill-rule="evenodd" /><text fill="#FFFFFF"
      font-family="Times New Roman,Times New Roman_MSFontService,sans-serif" font-weight="400" font-size="55"
      transform="matrix(1 0 0 1 2599.5 551)">Select<tspan font-size="55" x="-70.1709" y="80">Transformer</tspan>
    </text>
    <path
      d="M2983 516.5C2983 502.417 2994.42 491 3008.5 491L3345.5 491C3359.58 491 3371 502.417 3371 516.5L3371 618.499C3371 632.583 3359.58 644 3345.5 644L3008.5 644C2994.42 644 2983 632.583 2983 618.499Z"
      fill="#63A6D6" fill-rule="evenodd" /><text fill="#FFFFFF"
      font-family="Times New Roman,Times New Roman_MSFontService,sans-serif" font-weight="400" font-size="55"
      transform="matrix(1 0 0 1 3090.1 551)">OneHot<tspan font-size="55" x="-4.8584" y="80">Encoder</tspan></text>
    <path
      d="M2471 1307.5C2471 1293.42 2482.42 1282 2496.5 1282L2832.5 1282C2846.58 1282 2858 1293.42 2858 1307.5L2858 1409.5C2858 1423.58 2846.58 1435 2832.5 1435L2496.5 1435C2482.42 1435 2471 1423.58 2471 1409.5Z"
      fill="#63A6D6" fill-rule="evenodd" /><text fill="#FFFFFF"
      font-family="Times New Roman,Times New Roman_MSFontService,sans-serif" font-weight="400" font-size="55"
      transform="matrix(1 0 0 1 2597.04 1342)">Select<tspan font-size="55" x="-70.1709" y="80">Transformer</tspan>
    </text>
    <path
      d="M2983 1307.5C2983 1293.42 2994.42 1282 3008.5 1282L3345.5 1282C3359.58 1282 3371 1293.42 3371 1307.5L3371 1409.5C3371 1423.58 3359.58 1435 3345.5 1435L3008.5 1435C2994.42 1435 2983 1423.58 2983 1409.5Z"
      fill="#63A6D6" fill-rule="evenodd" /><text fill="#FFFFFF"
      font-family="Times New Roman,Times New Roman_MSFontService,sans-serif" font-weight="400" font-size="55"
      transform="matrix(1 0 0 1 3080.95 1342)">MinMax<tspan font-size="55" x="27.2251" y="80">Scaler</tspan>
    </text>
    <path
      d="M3505 908.334C3505 894.342 3516.34 883 3530.33 883L3867.67 883C3881.66 883 3893 894.342 3893 908.334L3893 1009.67C3893 1023.66 3881.66 1035 3867.67 1035L3530.33 1035C3516.34 1035 3505 1023.66 3505 1009.67Z"
      fill="#63A6D6" fill-rule="evenodd" /><text fill="#FFFFFF"
      font-family="Times New Roman,Times New Roman_MSFontService,sans-serif" font-weight="400" font-size="55"
      transform="matrix(1 0 0 1 3597.66 942)">Combine<tspan font-size="55" x="-35.7043" y="80">Transformer</tspan>
    </text>
    <path
      d="M297.5 1355.21 399.689 1355.21 399.689 1359.79 297.5 1359.79ZM395.106 1343.75 422.606 1357.5 395.106 1371.25Z"
      fill="#63A6D6" />
    <path
      d="M810.5 1355.21 912.689 1355.21 912.689 1359.79 810.5 1359.79ZM908.106 1343.75 935.606 1357.5 908.106 1371.25Z"
      fill="#63A6D6" />
    <path
      d="M1835.5 1742.21 2450.97 1742.21 2450.97 1746.79 1835.5 1746.79ZM2446.38 1730.75 2473.88 1744.5 2446.38 1758.25Z"
      fill="#63A6D6" />
    <path
      d="M2861.5 1742.21 3482.65 1742.21 3482.65 1746.79 2861.5 1746.79ZM3478.06 1730.75 3505.56 1744.5 3478.06 1758.25Z"
      fill="#63A6D6" />
    <path
      d="M1835.5 961.208 1936.75 961.209 1936.75 965.792 1835.5 965.792ZM1932.16 949.75 1959.66 963.5 1932.16 977.25Z"
      fill="#63A6D6" />
    <path
      d="M2858.5 1357.21 2960.52 1357.21 2960.52 1361.79 2858.5 1361.79ZM2955.94 1345.75 2983.44 1359.5 2955.94 1373.25Z"
      fill="#63A6D6" />
    <path
      d="M2861.5 566.208 2961.06 566.209 2961.06 570.792 2861.5 570.792ZM2956.48 554.75 2983.98 568.5 2956.48 582.25Z"
      fill="#63A6D6" />
    <path
      d="M0-2.29167 64.8437-2.29167 64.8437 393.998 62.552 391.706 102.187 391.706 102.187 396.289 60.2604 396.289 60.2604 0 62.552 2.29167 0 2.29167ZM97.6041 380.248 125.104 393.998 97.6041 407.748Z"
      fill="#4472C4" transform="matrix(1 0 0 -1 1322.5 1357.5)" />
    <path
      d="M1322.5 1355.21 1387.34 1355.21 1387.34 1744.6 1385.05 1742.31 1424.69 1742.31 1424.69 1746.9 1382.76 1746.9 1382.76 1357.5 1385.05 1359.79 1322.5 1359.79ZM1420.1 1730.85 1447.6 1744.6 1420.1 1758.35Z"
      fill="#4472C4" />
    <path
      d="M0-2.29167 65.6032-2.29167 65.6032 395.482 63.3115 393.191 103.706 393.191 103.706 397.774 61.0199 397.774 61.0199 0 63.3115 2.29167 0 2.29167ZM99.1231 381.732 126.623 395.482 99.1231 409.232Z"
      fill="#4472C4" transform="matrix(1 0 0 -1 2347.5 963.983)" />
    <path
      d="M3371.5 566.208 3440.78 566.208 3440.78 959.898 3438.49 957.606 3482.57 957.606 3482.57 962.189 3436.2 962.189 3436.2 568.5 3438.49 570.792 3371.5 570.792ZM3477.99 946.148 3505.49 959.898 3477.99 973.648Z"
      fill="#4472C4" />
    <path
      d="M0-2.29167 69.2845-2.29167 69.2845 399.567 66.9928 397.276 111.069 397.276 111.069 401.859 64.7011 401.859 64.7011 0 66.9928 2.29167 0 2.29167ZM106.486 385.817 133.986 399.567 106.486 413.317Z"
      fill="#4472C4" transform="matrix(1 0 0 -1 3371.5 1359.07)" />
    <path
      d="M3893.5 957.208 4015.36 957.208 4015.36 1357.58 4013.07 1355.29 4109.72 1355.29 4109.72 1359.87 4010.78 1359.87 4010.78 959.5 4013.07 961.792 3893.5 961.792ZM4105.14 1343.83 4132.64 1357.58 4105.14 1371.33Z"
      fill="#4472C4" />
    <path
      d="M4132 1306.33C4132 1292.34 4143.34 1281 4157.33 1281L4493.67 1281C4507.66 1281 4519 1292.34 4519 1306.33L4519 1407.67C4519 1421.66 4507.66 1433 4493.67 1433L4157.33 1433C4143.34 1433 4132 1421.66 4132 1407.67Z"
      fill="#63A6D6" fill-rule="evenodd" /><text fill="#FFFFFF"
      font-family="Times New Roman,Times New Roman_MSFontService,sans-serif" font-weight="400" font-size="55"
      transform="matrix(1 0 0 1 4203.2 1380)">Regression</text>
    <path
      d="M0-2.29167 121.862-2.29167 121.862 387.106 119.571 384.814 216.224 384.814 216.224 389.397 117.279 389.397 117.279 0 119.571 2.29167 0 2.29167ZM211.641 373.356 239.141 387.106 211.641 400.856Z"
      fill="#4472C4" transform="matrix(1 0 0 -1 3893.5 1744.61)" /><text
      font-family="Times New Roman,Times New Roman_MSFontService,sans-serif" font-weight="400" font-size="92"
      transform="matrix(1 0 0 1 1416.94 579)">Deal with </text>
    <path
      d="M1816.25 534.911C1817.18 534.911 1818 535.016 1818.7 535.225 1819.4 535.435 1820.02 535.757 1820.56 536.191 1821.1 536.625 1821.58 537.187 1822 537.876 1822.42 538.564 1822.82 539.5 1823.21 540.683 1823.6 541.866 1823.97 543.334 1824.31 545.086 1824.66 546.838 1824.97 548.657 1825.24 550.544L1825.68 550.544C1828.56 546.501 1830.74 543.543 1832.22 541.672 1833.7 539.8 1834.95 538.407 1835.97 537.494 1836.99 536.58 1837.97 535.937 1838.91 535.562 1839.86 535.188 1841.11 535.001 1842.67 535.001 1844.07 535.001 1845.23 535.18 1846.12 535.54L1844.33 543.671 1841.18 543.671C1841 542.413 1840.48 541.784 1839.61 541.784 1839.34 541.784 1839.06 541.829 1838.76 541.919 1838.46 542.008 1838.09 542.203 1837.66 542.503 1837.22 542.802 1836.59 543.386 1835.75 544.255 1834.91 545.123 1833.97 546.186 1832.92 547.444 1831.87 548.702 1830.79 550.02 1829.68 551.397L1826.63 555.216C1827.17 558.091 1827.68 560.576 1828.16 562.673 1828.63 564.769 1829.06 566.513 1829.44 567.906 1829.81 569.299 1830.14 570.399 1830.42 571.208 1830.71 572.016 1831.02 572.623 1831.34 573.027 1831.67 573.431 1832.01 573.716 1832.36 573.881 1832.7 574.045 1833.1 574.128 1833.55 574.128 1834.35 574.128 1835.14 573.813 1835.9 573.184 1836.67 572.555 1837.77 571.133 1839.21 568.917L1842.13 570.848C1840.03 573.963 1838.14 576.157 1836.44 577.429 1834.75 578.702 1832.74 579.339 1830.4 579.339 1829.11 579.339 1828.02 579.106 1827.12 578.642 1826.22 578.178 1825.45 577.437 1824.79 576.419 1824.13 575.4 1823.54 573.813 1823.03 571.657 1822.11 567.824 1821.54 564.889 1821.33 562.852L1820.88 562.852C1817.7 567.314 1815.35 570.519 1813.8 572.466 1812.26 574.412 1810.99 575.85 1809.98 576.778 1808.98 577.706 1808.01 578.358 1807.06 578.732 1806.12 579.106 1804.87 579.294 1803.31 579.294 1801.91 579.294 1800.75 579.114 1799.85 578.755L1801.65 570.624 1804.8 570.624C1804.98 571.882 1805.5 572.51 1806.37 572.51 1806.79 572.51 1807.23 572.398 1807.69 572.174 1808.16 571.949 1808.82 571.41 1809.69 570.556 1810.56 569.703 1811.76 568.363 1813.29 566.536 1814.81 564.709 1817.03 561.969 1819.93 558.315 1819.49 555.949 1819.02 553.673 1818.54 551.487 1818.06 549.301 1817.57 547.264 1817.06 545.378 1816.55 543.491 1816.13 542.256 1815.8 541.672 1815.47 541.088 1815.12 540.683 1814.75 540.459 1814.37 540.234 1813.9 540.122 1813.33 540.122 1812.7 540.122 1812.13 540.264 1811.62 540.549 1811.12 540.833 1810.56 541.327 1809.96 542.031 1809.36 542.735 1808.57 543.835 1807.58 545.333L1804.66 543.401C1806.55 540.556 1808.36 538.43 1810.1 537.022 1811.83 535.615 1813.89 534.911 1816.25 534.911Z"
      fill="#63A6D6" fill-rule="evenodd" /><text fill="#000000" fill-opacity="0"
      font-family="Arial,Arial_MSFontService,sans-serif" font-size="44.4277" x="1799.85" y="573.785">洧논</text><text
      font-family="Times New Roman,Times New Roman_MSFontService,sans-serif" font-weight="400" font-size="92"
      transform="matrix(1 0 0 1 1416.94 1595)">Deal with </text>
    <path
      d="M1813.33 1551.23C1814.56 1551.23 1815.61 1551.39 1816.48 1551.72 1817.07 1551.96 1817.67 1552.36 1818.27 1552.91 1818.87 1553.47 1819.4 1554.24 1819.87 1555.23 1820.33 1556.21 1820.74 1557.32 1821.08 1558.55 1821.42 1559.78 1821.81 1561.54 1822.23 1563.85 1822.94 1567.71 1823.64 1571.78 1824.31 1576.05 1824.99 1580.31 1825.57 1584.27 1826.04 1587.93 1828.95 1583.74 1831.41 1579.63 1833.43 1575.62 1835.46 1571.61 1836.91 1568.12 1837.79 1565.15 1838.67 1562.19 1839.12 1559.78 1839.12 1557.92 1839.12 1556.51 1838.82 1555.55 1838.22 1555.05 1837.62 1554.54 1836.6 1554.24 1835.16 1554.15L1835.61 1551.95 1847.43 1551.95 1848.64 1554.19C1846.36 1560.42 1843.28 1567.08 1839.39 1574.18 1835.55 1581.13 1831.17 1588.05 1826.22 1594.94 1821.49 1601.49 1817.55 1606.24 1814.41 1609.18 1812.22 1611.18 1810.11 1612.62 1808.08 1613.49 1806.46 1614.15 1804.74 1614.48 1802.91 1614.48 1802.28 1614.48 1801.55 1614.42 1800.73 1614.32 1799.91 1614.22 1799.27 1614.07 1798.82 1613.89L1800.75 1605.18 1804.3 1605.18C1804.3 1607.09 1804.96 1608.05 1806.28 1608.05 1808.02 1608.05 1810.04 1606.97 1812.34 1604.8 1814.65 1602.63 1817.36 1599.35 1820.47 1594.98 1819.61 1589.74 1818.42 1583.42 1816.93 1576.02 1815.34 1568.12 1814.29 1563.22 1813.78 1561.33 1813.15 1559.06 1812.49 1557.61 1811.8 1556.98 1811.38 1556.59 1810.86 1556.39 1810.23 1556.39 1809.27 1556.39 1808.37 1556.78 1807.54 1557.56 1806.7 1558.34 1805.66 1559.69 1804.44 1561.6L1801.52 1559.67C1803.58 1556.59 1805.51 1554.41 1807.31 1553.14 1809.11 1551.86 1811.12 1551.23 1813.33 1551.23Z"
      fill="#63A6D6" fill-rule="evenodd" /><text fill="#000000" fill-opacity="0"
      font-family="Arial,Arial_MSFontService,sans-serif" font-size="63.25" x="1798.82" y="1606.57">洧녽</text><text
      font-family="Times New Roman,Times New Roman_MSFontService,sans-serif" font-weight="400" font-size="92"
      transform="matrix(1 0 0 1 2494.89 772)">Deal with <tspan fill="#63A6D6" font-size="92" x="381.563" y="0">
        categorical</tspan></text>
    <path
      d="M3318.15 727.845C3319.08 727.845 3319.9 727.949 3320.6 728.159 3321.3 728.369 3321.92 728.691 3322.46 729.125 3323 729.559 3323.48 730.121 3323.9 730.809 3324.32 731.498 3324.72 732.434 3325.11 733.617 3325.5 734.8 3325.87 736.267 3326.21 738.019 3326.56 739.771 3326.87 741.591 3327.14 743.477L3327.58 743.477C3330.46 739.434 3332.64 736.477 3334.12 734.605 3335.6 732.734 3336.85 731.341 3337.87 730.428 3338.89 729.514 3339.87 728.87 3340.81 728.496 3341.76 728.122 3343.01 727.934 3344.56 727.934 3345.97 727.934 3347.13 728.114 3348.02 728.474L3346.23 736.604 3343.08 736.604C3342.9 735.347 3342.38 734.718 3341.51 734.718 3341.24 734.718 3340.96 734.763 3340.66 734.852 3340.36 734.942 3339.99 735.137 3339.56 735.436 3339.12 735.736 3338.49 736.32 3337.65 737.188 3336.81 738.057 3335.86 739.12 3334.82 740.378 3333.77 741.636 3332.69 742.953 3331.58 744.331L3328.53 748.149C3329.07 751.024 3329.58 753.51 3330.05 755.606 3330.53 757.703 3330.96 759.447 3331.34 760.84 3331.71 762.232 3332.04 763.333 3332.32 764.141 3332.61 764.95 3332.92 765.557 3333.24 765.961 3333.57 766.365 3333.91 766.65 3334.26 766.814 3334.6 766.979 3335 767.061 3335.45 767.061 3336.25 767.061 3337.04 766.747 3337.8 766.118 3338.57 765.489 3339.67 764.067 3341.11 761.85L3344.03 763.782C3341.93 766.897 3340.04 769.09 3338.34 770.363 3336.65 771.636 3334.64 772.272 3332.3 772.272 3331.01 772.272 3329.92 772.04 3329.02 771.576 3328.12 771.112 3327.34 770.371 3326.69 769.352 3326.03 768.334 3325.44 766.747 3324.93 764.591 3324.01 760.757 3323.44 757.822 3323.23 755.786L3322.78 755.786C3319.6 760.248 3317.24 763.453 3315.7 765.399 3314.16 767.346 3312.89 768.783 3311.88 769.712 3310.88 770.64 3309.91 771.292 3308.96 771.666 3308.02 772.04 3306.77 772.227 3305.21 772.227 3303.81 772.227 3302.65 772.048 3301.75 771.688L3303.55 763.557 3306.7 763.557C3306.88 764.815 3307.4 765.444 3308.27 765.444 3308.69 765.444 3309.13 765.332 3309.59 765.107 3310.06 764.883 3310.72 764.344 3311.59 763.49 3312.46 762.637 3313.66 761.296 3315.19 759.47 3316.71 757.643 3318.93 754.903 3321.83 751.249 3321.39 748.883 3320.92 746.607 3320.44 744.421 3319.96 742.235 3319.47 740.198 3318.96 738.311 3318.45 736.425 3318.03 735.189 3317.7 734.605 3317.37 734.021 3317.02 733.617 3316.65 733.392 3316.27 733.168 3315.8 733.056 3315.23 733.056 3314.6 733.056 3314.03 733.198 3313.52 733.482 3313.01 733.767 3312.46 734.261 3311.86 734.965 3311.26 735.669 3310.47 736.769 3309.48 738.266L3306.56 736.335C3308.45 733.49 3310.26 731.363 3312 729.956 3313.73 728.548 3315.78 727.845 3318.15 727.845Z"
      fill-rule="evenodd" /><text fill="#000000" fill-opacity="0" font-family="Arial,Arial_MSFontService,sans-serif"
      font-size="44.4277" x="3301.75" y="766.719">洧논</text>
    <path
      d="M2347.5 961.208 2413.02 961.208 2413.02 1358.98 2410.73 1356.69 2448.75 1356.69 2448.75 1361.27 2408.44 1361.27 2408.44 963.5 2410.73 965.792 2347.5 965.792ZM2444.16 1345.23 2471.66 1358.98 2444.16 1372.73Z"
      fill="#4472C4" /><text font-family="Times New Roman,Times New Roman_MSFontService,sans-serif" font-weight="400"
      font-size="92" transform="matrix(1 0 0 1 2545.59 1258)">Deal with <tspan fill="#63A6D6" font-size="92" x="381.563"
        y="0">numeric</tspan></text>
    <path
      d="M3267.45 1214.07C3268.38 1214.07 3269.19 1214.18 3269.9 1214.39 3270.6 1214.6 3271.22 1214.92 3271.76 1215.35 3272.3 1215.79 3272.78 1216.35 3273.2 1217.04 3273.62 1217.73 3274.02 1218.66 3274.41 1219.85 3274.8 1221.03 3275.17 1222.5 3275.51 1224.25 3275.86 1226 3276.16 1227.82 3276.43 1229.71L3276.88 1229.71C3279.76 1225.66 3281.94 1222.71 3283.42 1220.83 3284.9 1218.96 3286.15 1217.57 3287.17 1216.66 3288.19 1215.74 3289.17 1215.1 3290.11 1214.73 3291.05 1214.35 3292.3 1214.16 3293.86 1214.16 3295.27 1214.16 3296.42 1214.34 3297.32 1214.7L3295.52 1222.83 3292.38 1222.83C3292.2 1221.58 3291.68 1220.95 3290.81 1220.95 3290.54 1220.95 3290.25 1220.99 3289.95 1221.08 3289.65 1221.17 3289.29 1221.37 3288.85 1221.67 3288.42 1221.97 3287.78 1222.55 3286.94 1223.42 3286.11 1224.29 3285.16 1225.35 3284.11 1226.61 3283.07 1227.87 3281.99 1229.18 3280.88 1230.56L3277.82 1234.38C3278.36 1237.25 3278.87 1239.74 3279.35 1241.84 3279.83 1243.93 3280.26 1245.68 3280.63 1247.07 3281.01 1248.46 3281.34 1249.56 3281.62 1250.37 3281.91 1251.18 3282.21 1251.79 3282.54 1252.19 3282.87 1252.59 3283.21 1252.88 3283.55 1253.04 3283.9 1253.21 3284.29 1253.29 3284.74 1253.29 3285.55 1253.29 3286.34 1252.98 3287.1 1252.35 3287.86 1251.72 3288.97 1250.3 3290.4 1248.08L3293.32 1250.01C3291.23 1253.13 3289.33 1255.32 3287.64 1256.59 3285.95 1257.87 3283.93 1258.5 3281.6 1258.5 3280.31 1258.5 3279.22 1258.27 3278.32 1257.81 3277.42 1257.34 3276.64 1256.6 3275.98 1255.58 3275.32 1254.56 3274.74 1252.98 3274.23 1250.82 3273.3 1246.99 3272.73 1244.05 3272.52 1242.02L3272.07 1242.02C3268.9 1246.48 3266.54 1249.68 3265 1251.63 3263.46 1253.58 3262.18 1255.01 3261.18 1255.94 3260.18 1256.87 3259.2 1257.52 3258.26 1257.9 3257.32 1258.27 3256.07 1258.46 3254.51 1258.46 3253.1 1258.46 3251.95 1258.28 3251.05 1257.92L3252.85 1249.79 3255.99 1249.79C3256.17 1251.04 3256.7 1251.67 3257.56 1251.67 3257.98 1251.67 3258.43 1251.56 3258.89 1251.34 3259.35 1251.11 3260.02 1250.57 3260.89 1249.72 3261.76 1248.87 3262.96 1247.53 3264.48 1245.7 3266.01 1243.87 3268.23 1241.13 3271.13 1237.48 3270.68 1235.11 3270.22 1232.84 3269.74 1230.65 3269.26 1228.46 3268.77 1226.43 3268.26 1224.54 3267.75 1222.65 3267.33 1221.42 3267 1220.83 3266.67 1220.25 3266.32 1219.85 3265.94 1219.62 3265.57 1219.4 3265.1 1219.29 3264.53 1219.29 3263.9 1219.29 3263.33 1219.43 3262.82 1219.71 3262.31 1220 3261.76 1220.49 3261.16 1221.19 3260.56 1221.9 3259.77 1223 3258.78 1224.5L3255.86 1222.56C3257.74 1219.72 3259.56 1217.59 3261.29 1216.19 3263.03 1214.78 3265.08 1214.07 3267.45 1214.07Z"
      fill-rule="evenodd" /><text fill="#000000" fill-opacity="0" font-family="Arial,Arial_MSFontService,sans-serif"
      font-size="44.4277" x="3251.05" y="1252.95">洧논</text>
  </g>
</svg>
